<svg width="270" height="310" viewBox="0 0 270 310" fill="none" xmlns="http://www.w3.org/2000/svg">
<g clip-path="url(#clip0_297_3276)">
<path d="M192.013 260.146L194.683 310C194.683 310 81.7117 205.466 67.6374 174.88C53.5632 144.294 80.0559 68.6355 80.0559 68.6355L138.837 100.026L192.013 260.146Z" fill="#9F616A"/>
<path d="M18.7914 47.7085L1.40553 49.3183C1.40553 49.3183 -7.70137 68.6354 20.4472 70.2452L18.7914 47.7085Z" fill="#9F616A"/>
<path d="M18.7914 77.4893L1.40553 79.099C1.40553 79.099 -7.70137 98.4162 20.4472 100.026L18.7914 77.4893Z" fill="#9F616A"/>
<path d="M18.7914 109.685L1.40553 111.294C1.40553 111.294 -7.70137 130.612 20.4472 132.221L18.7914 109.685Z" fill="#9F616A"/>
<path d="M23.7591 141.88L6.37331 143.49C6.37331 143.49 -2.7336 162.807 25.415 164.417L23.7591 141.88Z" fill="#9F616A"/>
<path d="M10.3271 55.469H11.6463V20.3348C11.6463 17.6644 12.1874 15.0201 13.2385 12.553C14.2896 10.0859 15.8303 7.84418 17.7725 5.95592C19.7148 4.06766 22.0206 2.56982 24.5582 1.5479C27.0959 0.525981 29.8158 2.04595e-06 32.5625 0H109.128C111.875 -5.45571e-06 114.594 0.525965 117.132 1.54788C119.67 2.56979 121.976 4.06763 123.918 5.95588C125.86 7.84413 127.401 10.0858 128.452 12.5529C129.503 15.0201 130.044 17.6643 130.044 20.3347V213.084C130.044 215.754 129.503 218.399 128.452 220.866C127.401 223.333 125.86 225.574 123.918 227.463C121.976 229.351 119.67 230.849 117.132 231.871C114.594 232.893 111.875 233.419 109.128 233.419H32.5626C27.0153 233.419 21.6952 231.276 17.7726 227.463C13.8501 223.649 11.6464 218.477 11.6464 213.084V80.4781H10.3271V55.469Z" fill="#3F3D56"/>
<path d="M31.7186 5.2903H41.7129C41.2533 6.38579 41.0779 7.57436 41.2021 8.75129C41.3262 9.92823 41.7462 11.0574 42.425 12.0394C43.1038 13.0214 44.0206 13.826 45.0946 14.3823C46.1686 14.9387 47.3668 15.2297 48.5838 15.2298H92.447C93.664 15.2297 94.8622 14.9387 95.9362 14.3823C97.0102 13.826 97.927 13.0214 98.6058 12.0394C99.2846 11.0574 99.7046 9.92824 99.8288 8.75129C99.9529 7.57435 99.7775 6.38578 99.3179 5.29028H108.653C112.795 5.29028 116.768 6.8902 119.698 9.73808C122.627 12.586 124.273 16.4485 124.273 20.476V212.942C124.273 214.937 123.869 216.911 123.084 218.754C122.299 220.596 121.148 222.27 119.698 223.68C118.247 225.091 116.525 226.209 114.63 226.972C112.735 227.735 110.704 228.128 108.653 228.128H31.7186C29.6674 228.128 27.6362 227.735 25.7411 226.972C23.846 226.209 22.1241 225.091 20.6736 223.68C19.2232 222.27 18.0726 220.596 17.2876 218.754C16.5027 216.911 16.0986 214.937 16.0986 212.942V20.476C16.0986 18.4818 16.5027 16.5071 17.2876 14.6647C18.0726 12.8223 19.2232 11.1482 20.6736 9.73809C22.1241 8.32797 23.846 7.20939 25.7411 6.44624C27.6362 5.68308 29.6674 5.2903 31.7186 5.2903Z" fill="white"/>
<path d="M86.669 59.21H53.7031V66.9438H86.669V59.21Z" fill="#6B3FA0"/>
<path d="M88.2376 92.4419H52.1328V100.176H88.2376V92.4419Z" fill="#E5E5E5"/>
<path d="M110.477 109.055H29.8945V116.789H110.477V109.055Z" fill="#E5E5E5"/>
<path d="M110.477 125.668H29.8945V133.402H110.477V125.668Z" fill="#E5E5E5"/>
<path d="M270 286.112L177.334 183.331L174.023 117.331L139.251 60.9892L129.316 36.8428C129.316 36.8428 106.135 39.2574 125.177 85.1357L133.042 109.685C125.952 124.53 122.279 140.701 122.279 157.069V213.322C122.279 226.568 187.206 298.719 194.764 309.74L270 286.112Z" fill="#9F616A"/>
<path opacity="0.2" d="M132.042 65.7634L138.954 62.4606L138.719 61.9943L132.332 65.0463L122.69 40.4709L122.191 40.6563L132.042 65.7634Z" fill="black"/>
<path opacity="0.2" d="M1.49814 49.0739L1.31348 49.5613L11.5538 53.2286L11.7384 52.7412L1.49814 49.0739Z" fill="black"/>
<path opacity="0.2" d="M1.49814 79.1938L1.31348 79.6812L11.5538 83.3485L11.7384 82.8611L1.49814 79.1938Z" fill="black"/>
<path opacity="0.2" d="M1.49814 111.391L1.31348 111.878L11.5538 115.546L11.7384 115.058L1.49814 111.391Z" fill="black"/>
<path opacity="0.2" d="M6.86292 143.598L6.63184 144.066L11.6174 146.393L11.8485 145.924L6.86292 143.598Z" fill="black"/>
<path d="M70.2265 200.145C82.9797 200.145 93.3183 190.094 93.3183 177.695C93.3183 165.296 82.9797 155.245 70.2265 155.245C57.4733 155.245 47.1348 165.296 47.1348 177.695C47.1348 190.094 57.4733 200.145 70.2265 200.145Z" fill="#6B3FA0"/>
<path d="M68.0262 187.172L61.1152 178.532L65.1343 175.493L68.4065 179.584L79.462 168.238L83.159 171.643L68.0262 187.172Z" fill="white"/>
</g>
<defs>
<clipPath id="clip0_297_3276">
<rect width="270" height="310" fill="white"/>
</clipPath>
</defs>
</svg>
